<svg xmlns="http://www.w3.org/2000/svg" width="800" height="800" viewBox="0 0 800 800">
<defs>
  <radialGradient id="halo" cx="50%" cy="50%" r="50%">
    <stop offset="0%" stop-color="#fff8d8" stop-opacity="0.85"/>
    <stop offset="35%" stop-color="#fff8d8" stop-opacity="0.25"/>
    <stop offset="100%" stop-color="#fff8d8" stop-opacity="0"/>
  </radialGradient>
</defs>
<circle cx="511.5" cy="20.0" r="0.54" fill="#e8d8a8" opacity="0.37"/>
<circle cx="82.0" cy="592.5" r="0.67" fill="#ffffff" opacity="0.48"/>
<circle cx="23.8" cy="174.9" r="0.65" fill="#ffffff" opacity="0.31"/>
<circle cx="572.8" cy="561.1" r="0.61" fill="#cfd8e8" opacity="0.43"/>
<circle cx="647.5" cy="5.2" r="0.80" fill="#cfd8e8" opacity="0.51"/>
<circle cx="222.3" cy="172.3" r="0.78" fill="#cfd8e8" opacity="0.33"/>
<circle cx="77.4" cy="678.0" r="0.70" fill="#e8d8a8" opacity="0.54"/>
<circle cx="367.5" cy="99.9" r="0.86" fill="#cfd8e8" opacity="0.32"/>
<circle cx="663.5" cy="494.8" r="0.83" fill="#e8d8a8" opacity="0.47"/>
<circle cx="55.6" cy="529.0" r="0.79" fill="#ffffff" opacity="0.60"/>
<circle cx="693.2" cy="304.1" r="0.63" fill="#ffffff" opacity="0.55"/>
<circle cx="296.1" cy="167.6" r="0.53" fill="#e8d8a8" opacity="0.58"/>
<circle cx="57.1" cy="508.0" r="0.67" fill="#cfd8e8" opacity="0.37"/>
<circle cx="303.6" cy="791.6" r="0.72" fill="#e8d8a8" opacity="0.47"/>
<circle cx="259.4" cy="614.7" r="0.43" fill="#cfd8e8" opacity="0.55"/>
<circle cx="320.9" cy="53.0" r="0.86" fill="#e8d8a8" opacity="0.47"/>
<circle cx="251.7" cy="524.4" r="0.60" fill="#cfd8e8" opacity="0.57"/>
<circle cx="114.3" cy="111.7" r="0.77" fill="#e8d8a8" opacity="0.46"/>
<circle cx="467.7" cy="718.3" r="0.60" fill="#ffffff" opacity="0.37"/>
<circle cx="407.6" cy="72.7" r="0.42" fill="#e8d8a8" opacity="0.33"/>
<circle cx="128.0" cy="544.4" r="0.70" fill="#e8d8a8" opacity="0.42"/>
<circle cx="796.9" cy="423.3" r="0.89" fill="#ffffff" opacity="0.56"/>
<circle cx="544.2" cy="91.6" r="0.84" fill="#e8d8a8" opacity="0.53"/>
<circle cx="272.1" cy="234.8" r="0.48" fill="#e8d8a8" opacity="0.30"/>
<circle cx="700.7" cy="210.7" r="0.65" fill="#ffffff" opacity="0.35"/>
<circle cx="696.4" cy="238.8" r="0.72" fill="#ffffff" opacity="0.48"/>
<circle cx="299.1" cy="129.2" r="0.88" fill="#ffffff" opacity="0.58"/>
<circle cx="479.2" cy="390.9" r="0.46" fill="#cfd8e8" opacity="0.41"/>
<circle cx="191.6" cy="192.7" r="0.68" fill="#e8d8a8" opacity="0.32"/>
<circle cx="388.8" cy="55.4" r="0.78" fill="#ffffff" opacity="0.53"/>
<circle cx="527.8" cy="757.5" r="0.48" fill="#e8d8a8" opacity="0.46"/>
<circle cx="338.5" cy="169.4" r="0.67" fill="#ffffff" opacity="0.52"/>
<circle cx="570.4" cy="319.2" r="0.74" fill="#e8d8a8" opacity="0.41"/>
<circle cx="361.2" cy="198.3" r="0.43" fill="#e8d8a8" opacity="0.31"/>
<circle cx="184.1" cy="176.2" r="0.44" fill="#ffffff" opacity="0.49"/>
<circle cx="53.9" cy="25.1" r="0.57" fill="#cfd8e8" opacity="0.45"/>
<circle cx="535.2" cy="171.4" r="0.47" fill="#e8d8a8" opacity="0.58"/>
<circle cx="461.0" cy="194.4" r="0.64" fill="#ffffff" opacity="0.42"/>
<circle cx="77.5" cy="344.8" r="0.61" fill="#e8d8a8" opacity="0.44"/>
<circle cx="43.3" cy="522.8" r="0.72" fill="#e8d8a8" opacity="0.32"/>
<circle cx="271.4" cy="689.3" r="0.52" fill="#cfd8e8" opacity="0.36"/>
<circle cx="112.1" cy="146.8" r="0.63" fill="#ffffff" opacity="0.56"/>
<circle cx="354.5" cy="689.1" r="0.68" fill="#e8d8a8" opacity="0.32"/>
<circle cx="668.8" cy="775.2" r="0.86" fill="#ffffff" opacity="0.55"/>
<circle cx="325.1" cy="385.1" r="0.83" fill="#ffffff" opacity="0.57"/>
<circle cx="303.2" cy="788.2" r="0.53" fill="#cfd8e8" opacity="0.54"/>
<circle cx="228.2" cy="557.3" r="0.77" fill="#e8d8a8" opacity="0.54"/>
<circle cx="574.7" cy="123.8" r="0.55" fill="#e8d8a8" opacity="0.59"/>
<circle cx="588.6" cy="48.8" r="0.56" fill="#cfd8e8" opacity="0.32"/>
<circle cx="402.3" cy="682.2" r="0.48" fill="#ffffff" opacity="0.59"/>
<circle cx="681.1" cy="54.8" r="0.43" fill="#cfd8e8" opacity="0.56"/>
<circle cx="95.9" cy="712.2" r="0.52" fill="#e8d8a8" opacity="0.48"/>
<circle cx="65.6" cy="525.9" r="0.68" fill="#cfd8e8" opacity="0.39"/>
<circle cx="163.4" cy="573.0" r="0.52" fill="#e8d8a8" opacity="0.42"/>
<circle cx="516.4" cy="365.8" r="0.86" fill="#ffffff" opacity="0.58"/>
<circle cx="366.6" cy="798.8" r="0.90" fill="#ffffff" opacity="0.32"/>
<circle cx="404.7" cy="106.0" r="0.57" fill="#ffffff" opacity="0.32"/>
<circle cx="295.6" cy="126.2" r="0.82" fill="#e8d8a8" opacity="0.51"/>
<circle cx="787.1" cy="645.7" r="0.66" fill="#e8d8a8" opacity="0.50"/>
<circle cx="239.5" cy="530.7" r="0.87" fill="#ffffff" opacity="0.34"/>
<circle cx="711.8" cy="593.9" r="0.48" fill="#ffffff" opacity="0.38"/>
<circle cx="574.1" cy="162.9" r="0.72" fill="#cfd8e8" opacity="0.38"/>
<circle cx="200.9" cy="726.5" r="0.43" fill="#cfd8e8" opacity="0.49"/>
<circle cx="35.3" cy="266.8" r="0.47" fill="#ffffff" opacity="0.59"/>
<circle cx="593.0" cy="441.3" r="0.61" fill="#ffffff" opacity="0.30"/>
<circle cx="756.0" cy="552.8" r="0.47" fill="#cfd8e8" opacity="0.31"/>
<circle cx="466.0" cy="118.5" r="0.46" fill="#ffffff" opacity="0.39"/>
<circle cx="719.1" cy="168.1" r="0.52" fill="#e8d8a8" opacity="0.33"/>
<circle cx="707.3" cy="325.1" r="0.71" fill="#ffffff" opacity="0.35"/>
<circle cx="691.7" cy="781.0" r="0.81" fill="#ffffff" opacity="0.56"/>
<circle cx="143.5" cy="739.6" r="0.79" fill="#e8d8a8" opacity="0.42"/>
<circle cx="691.3" cy="648.6" r="0.53" fill="#ffffff" opacity="0.54"/>
<circle cx="306.0" cy="31.0" r="0.64" fill="#cfd8e8" opacity="0.36"/>
<circle cx="279.7" cy="656.4" r="0.84" fill="#e8d8a8" opacity="0.37"/>
<circle cx="154.5" cy="262.6" r="0.83" fill="#cfd8e8" opacity="0.59"/>
<circle cx="280.9" cy="407.5" r="0.74" fill="#cfd8e8" opacity="0.55"/>
<circle cx="751.4" cy="92.3" r="0.89" fill="#cfd8e8" opacity="0.35"/>
<circle cx="30.6" cy="477.3" r="0.57" fill="#cfd8e8" opacity="0.54"/>
<circle cx="485.0" cy="409.1" r="0.59" fill="#cfd8e8" opacity="0.47"/>
<circle cx="35.5" cy="348.8" r="0.66" fill="#e8d8a8" opacity="0.54"/>
<circle cx="575.5" cy="593.6" r="0.74" fill="#ffffff" opacity="0.41"/>
<circle cx="759.1" cy="736.6" r="0.71" fill="#ffffff" opacity="0.50"/>
<circle cx="575.8" cy="240.3" r="0.55" fill="#cfd8e8" opacity="0.42"/>
<circle cx="557.8" cy="443.5" r="0.50" fill="#cfd8e8" opacity="0.50"/>
<circle cx="541.9" cy="722.2" r="0.71" fill="#e8d8a8" opacity="0.39"/>
<circle cx="667.0" cy="243.1" r="0.51" fill="#e8d8a8" opacity="0.54"/>
<circle cx="523.8" cy="372.0" r="0.62" fill="#cfd8e8" opacity="0.36"/>
<circle cx="635.0" cy="767.9" r="0.77" fill="#cfd8e8" opacity="0.50"/>
<circle cx="412.4" cy="506.4" r="0.57" fill="#ffffff" opacity="0.55"/>
<circle cx="538.2" cy="179.7" r="0.50" fill="#ffffff" opacity="0.31"/>
<circle cx="787.1" cy="489.0" r="0.78" fill="#e8d8a8" opacity="0.44"/>
<circle cx="460.5" cy="574.7" r="0.59" fill="#ffffff" opacity="0.42"/>
<circle cx="524.8" cy="4.4" r="0.78" fill="#ffffff" opacity="0.53"/>
<circle cx="622.7" cy="175.1" r="0.80" fill="#cfd8e8" opacity="0.51"/>
<circle cx="40.2" cy="199.4" r="0.82" fill="#cfd8e8" opacity="0.44"/>
<circle cx="534.1" cy="790.3" r="0.70" fill="#cfd8e8" opacity="0.59"/>
<circle cx="490.1" cy="575.4" r="0.65" fill="#e8d8a8" opacity="0.55"/>
<circle cx="356.7" cy="127.3" r="0.83" fill="#ffffff" opacity="0.44"/>
<circle cx="671.9" cy="221.8" r="0.79" fill="#ffffff" opacity="0.45"/>
<circle cx="219.7" cy="62.0" r="0.54" fill="#cfd8e8" opacity="0.38"/>
<circle cx="714.4" cy="64.5" r="0.48" fill="#ffffff" opacity="0.41"/>
<circle cx="565.1" cy="51.4" r="0.60" fill="#cfd8e8" opacity="0.46"/>
<circle cx="49.8" cy="666.3" r="0.59" fill="#e8d8a8" opacity="0.53"/>
<circle cx="15.6" cy="704.5" r="0.69" fill="#cfd8e8" opacity="0.44"/>
<circle cx="238.9" cy="312.0" r="0.85" fill="#e8d8a8" opacity="0.55"/>
<circle cx="598.0" cy="436.9" r="0.70" fill="#ffffff" opacity="0.37"/>
<circle cx="218.3" cy="388.5" r="0.59" fill="#cfd8e8" opacity="0.50"/>
<circle cx="579.3" cy="672.4" r="0.86" fill="#e8d8a8" opacity="0.59"/>
<circle cx="21.6" cy="315.2" r="0.68" fill="#e8d8a8" opacity="0.31"/>
<circle cx="342.9" cy="693.5" r="0.49" fill="#cfd8e8" opacity="0.38"/>
<circle cx="169.3" cy="261.5" r="0.78" fill="#cfd8e8" opacity="0.41"/>
<circle cx="201.8" cy="65.5" r="0.41" fill="#cfd8e8" opacity="0.46"/>
<circle cx="179.4" cy="54.9" r="0.88" fill="#ffffff" opacity="0.31"/>
<circle cx="759.7" cy="159.5" r="0.41" fill="#ffffff" opacity="0.35"/>
<circle cx="378.8" cy="91.5" r="0.87" fill="#cfd8e8" opacity="0.44"/>
<circle cx="613.5" cy="134.2" r="0.70" fill="#ffffff" opacity="0.52"/>
<circle cx="622.2" cy="131.0" r="0.56" fill="#cfd8e8" opacity="0.47"/>
<circle cx="460.6" cy="726.4" r="0.59" fill="#ffffff" opacity="0.58"/>
<circle cx="60.8" cy="552.5" r="0.71" fill="#cfd8e8" opacity="0.33"/>
<circle cx="680.2" cy="480.3" r="0.46" fill="#ffffff" opacity="0.60"/>
<circle cx="277.8" cy="342.7" r="0.59" fill="#cfd8e8" opacity="0.45"/>
<circle cx="10.1" cy="336.0" r="0.65" fill="#cfd8e8" opacity="0.43"/>
<circle cx="508.5" cy="663.0" r="0.75" fill="#e8d8a8" opacity="0.43"/>
<circle cx="417.4" cy="520.4" r="0.71" fill="#cfd8e8" opacity="0.58"/>
<circle cx="371.9" cy="660.6" r="0.70" fill="#ffffff" opacity="0.40"/>
<circle cx="664.6" cy="69.3" r="0.84" fill="#cfd8e8" opacity="0.37"/>
<circle cx="455.9" cy="534.6" r="0.57" fill="#cfd8e8" opacity="0.45"/>
<circle cx="145.5" cy="169.7" r="0.80" fill="#e8d8a8" opacity="0.40"/>
<circle cx="560.9" cy="221.0" r="0.41" fill="#ffffff" opacity="0.58"/>
<circle cx="193.1" cy="325.1" r="0.68" fill="#cfd8e8" opacity="0.37"/>
<circle cx="516.7" cy="392.7" r="0.80" fill="#ffffff" opacity="0.33"/>
<circle cx="323.5" cy="194.6" r="0.73" fill="#e8d8a8" opacity="0.41"/>
<circle cx="424.7" cy="340.4" r="0.77" fill="#e8d8a8" opacity="0.40"/>
<circle cx="363.0" cy="245.3" r="0.52" fill="#cfd8e8" opacity="0.52"/>
<circle cx="95.6" cy="428.7" r="0.78" fill="#ffffff" opacity="0.36"/>
<circle cx="590.9" cy="221.2" r="0.69" fill="#e8d8a8" opacity="0.53"/>
<circle cx="226.4" cy="80.4" r="0.50" fill="#ffffff" opacity="0.37"/>
<circle cx="241.8" cy="566.4" r="0.46" fill="#ffffff" opacity="0.31"/>
<circle cx="442.7" cy="557.9" r="0.46" fill="#cfd8e8" opacity="0.56"/>
<circle cx="82.1" cy="9.8" r="0.54" fill="#cfd8e8" opacity="0.44"/>
<circle cx="147.5" cy="41.1" r="0.87" fill="#ffffff" opacity="0.44"/>
<circle cx="320.6" cy="59.3" r="0.71" fill="#ffffff" opacity="0.32"/>
<circle cx="648.9" cy="759.3" r="0.44" fill="#e8d8a8" opacity="0.37"/>
<circle cx="611.6" cy="485.1" r="0.80" fill="#e8d8a8" opacity="0.37"/>
<circle cx="304.3" cy="726.8" r="0.55" fill="#cfd8e8" opacity="0.48"/>
<circle cx="244.3" cy="496.8" r="0.70" fill="#ffffff" opacity="0.52"/>
<circle cx="500.4" cy="211.7" r="0.44" fill="#e8d8a8" opacity="0.37"/>
<circle cx="60.1" cy="2.1" r="0.63" fill="#cfd8e8" opacity="0.48"/>
<circle cx="26.1" cy="230.5" r="0.54" fill="#ffffff" opacity="0.56"/>
<circle cx="549.9" cy="739.1" r="0.79" fill="#e8d8a8" opacity="0.49"/>
<circle cx="643.1" cy="158.3" r="0.46" fill="#ffffff" opacity="0.37"/>
<circle cx="726.7" cy="661.3" r="0.44" fill="#cfd8e8" opacity="0.35"/>
<circle cx="476.0" cy="659.4" r="0.86" fill="#cfd8e8" opacity="0.43"/>
<circle cx="550.9" cy="559.8" r="0.87" fill="#cfd8e8" opacity="0.45"/>
<circle cx="350.2" cy="478.4" r="0.84" fill="#e8d8a8" opacity="0.52"/>
<circle cx="200.3" cy="73.1" r="0.88" fill="#e8d8a8" opacity="0.55"/>
<circle cx="469.7" cy="16.6" r="0.78" fill="#e8d8a8" opacity="0.55"/>
<circle cx="32.2" cy="605.0" r="0.64" fill="#cfd8e8" opacity="0.50"/>
<circle cx="145.2" cy="468.3" r="0.72" fill="#ffffff" opacity="0.45"/>
<circle cx="376.0" cy="326.7" r="0.56" fill="#ffffff" opacity="0.33"/>
<circle cx="263.8" cy="554.9" r="0.54" fill="#e8d8a8" opacity="0.58"/>
<circle cx="29.4" cy="70.4" r="0.53" fill="#cfd8e8" opacity="0.33"/>
<circle cx="691.9" cy="659.9" r="0.40" fill="#cfd8e8" opacity="0.56"/>
<circle cx="330.6" cy="150.1" r="0.58" fill="#e8d8a8" opacity="0.53"/>
<circle cx="353.6" cy="41.3" r="0.53" fill="#cfd8e8" opacity="0.34"/>
<circle cx="350.5" cy="558.6" r="0.46" fill="#e8d8a8" opacity="0.59"/>
<circle cx="639.5" cy="567.8" r="0.56" fill="#cfd8e8" opacity="0.30"/>
<circle cx="74.6" cy="793.8" r="0.86" fill="#ffffff" opacity="0.44"/>
<circle cx="518.2" cy="123.2" r="0.87" fill="#e8d8a8" opacity="0.39"/>
<circle cx="218.7" cy="667.8" r="0.89" fill="#e8d8a8" opacity="0.37"/>
<circle cx="115.7" cy="152.5" r="0.70" fill="#ffffff" opacity="0.52"/>
<circle cx="691.2" cy="221.0" r="0.80" fill="#e8d8a8" opacity="0.42"/>
<circle cx="213.7" cy="2.1" r="0.76" fill="#e8d8a8" opacity="0.55"/>
<circle cx="799.1" cy="391.7" r="0.47" fill="#cfd8e8" opacity="0.46"/>
<circle cx="266.0" cy="610.3" r="0.59" fill="#ffffff" opacity="0.58"/>
<circle cx="784.6" cy="191.0" r="0.59" fill="#cfd8e8" opacity="0.56"/>
<circle cx="34.9" cy="595.8" r="0.75" fill="#cfd8e8" opacity="0.54"/>
<circle cx="790.7" cy="633.9" r="0.73" fill="#ffffff" opacity="0.35"/>
<circle cx="101.0" cy="772.3" r="0.57" fill="#cfd8e8" opacity="0.33"/>
<circle cx="79.8" cy="728.4" r="0.41" fill="#e8d8a8" opacity="0.34"/>
<circle cx="776.0" cy="59.9" r="0.79" fill="#e8d8a8" opacity="0.38"/>
<circle cx="554.2" cy="519.9" r="0.83" fill="#e8d8a8" opacity="0.56"/>
<circle cx="304.0" cy="253.3" r="0.76" fill="#e8d8a8" opacity="0.53"/>
<circle cx="28.7" cy="54.7" r="0.72" fill="#ffffff" opacity="0.58"/>
<circle cx="597.4" cy="347.2" r="0.45" fill="#ffffff" opacity="0.49"/>
<circle cx="354.9" cy="555.2" r="0.85" fill="#ffffff" opacity="0.31"/>
<circle cx="234.7" cy="299.9" r="0.47" fill="#e8d8a8" opacity="0.46"/>
<circle cx="545.4" cy="144.0" r="0.49" fill="#cfd8e8" opacity="0.48"/>
<circle cx="495.8" cy="192.7" r="0.86" fill="#cfd8e8" opacity="0.34"/>
<circle cx="510.3" cy="367.7" r="0.73" fill="#cfd8e8" opacity="0.57"/>
<circle cx="721.0" cy="542.1" r="0.48" fill="#cfd8e8" opacity="0.43"/>
<circle cx="790.1" cy="239.3" r="0.88" fill="#cfd8e8" opacity="0.51"/>
<circle cx="676.2" cy="159.4" r="0.59" fill="#ffffff" opacity="0.44"/>
<circle cx="305.1" cy="287.2" r="0.55" fill="#ffffff" opacity="0.51"/>
<circle cx="782.4" cy="526.6" r="0.54" fill="#e8d8a8" opacity="0.47"/>
<circle cx="622.6" cy="778.9" r="0.86" fill="#cfd8e8" opacity="0.52"/>
<circle cx="620.6" cy="184.1" r="0.80" fill="#ffffff" opacity="0.37"/>
<circle cx="496.7" cy="542.2" r="0.76" fill="#ffffff" opacity="0.50"/>
<circle cx="502.6" cy="722.7" r="0.72" fill="#cfd8e8" opacity="0.39"/>
<circle cx="26.7" cy="291.9" r="0.47" fill="#cfd8e8" opacity="0.57"/>
<circle cx="598.0" cy="140.5" r="0.47" fill="#cfd8e8" opacity="0.46"/>
<circle cx="424.7" cy="730.8" r="0.82" fill="#cfd8e8" opacity="0.38"/>
<circle cx="773.9" cy="236.1" r="0.84" fill="#cfd8e8" opacity="0.54"/>
<circle cx="770.3" cy="112.6" r="0.88" fill="#e8d8a8" opacity="0.56"/>
<circle cx="539.5" cy="317.9" r="0.82" fill="#ffffff" opacity="0.47"/>
<circle cx="632.5" cy="11.1" r="0.67" fill="#e8d8a8" opacity="0.44"/>
<circle cx="599.2" cy="209.7" r="0.59" fill="#cfd8e8" opacity="0.49"/>
<circle cx="86.7" cy="187.1" r="0.41" fill="#e8d8a8" opacity="0.57"/>
<circle cx="262.4" cy="488.1" r="0.72" fill="#cfd8e8" opacity="0.49"/>
<circle cx="727.5" cy="241.8" r="0.60" fill="#ffffff" opacity="0.34"/>
<circle cx="243.5" cy="394.1" r="0.45" fill="#ffffff" opacity="0.57"/>
<circle cx="310.9" cy="296.8" r="0.87" fill="#e8d8a8" opacity="0.51"/>
<circle cx="335.3" cy="593.8" r="0.48" fill="#ffffff" opacity="0.42"/>
<circle cx="667.0" cy="492.5" r="0.87" fill="#e8d8a8" opacity="0.38"/>
<circle cx="296.4" cy="354.7" r="0.88" fill="#ffffff" opacity="0.56"/>
<circle cx="784.7" cy="293.9" r="0.85" fill="#ffffff" opacity="0.49"/>
<circle cx="318.5" cy="151.8" r="0.46" fill="#cfd8e8" opacity="0.55"/>
<circle cx="73.3" cy="169.7" r="0.72" fill="#ffffff" opacity="0.59"/>
<circle cx="629.4" cy="194.9" r="0.46" fill="#ffffff" opacity="0.47"/>
<circle cx="663.9" cy="443.4" r="0.69" fill="#ffffff" opacity="0.54"/>
<circle cx="262.8" cy="118.0" r="0.85" fill="#ffffff" opacity="0.30"/>
<circle cx="790.0" cy="432.2" r="0.80" fill="#ffffff" opacity="0.33"/>
<circle cx="105.4" cy="286.6" r="0.79" fill="#ffffff" opacity="0.48"/>
<circle cx="139.4" cy="41.9" r="0.77" fill="#e8d8a8" opacity="0.46"/>
<circle cx="50.8" cy="358.6" r="0.58" fill="#cfd8e8" opacity="0.48"/>
<circle cx="403.1" cy="756.3" r="0.42" fill="#e8d8a8" opacity="0.53"/>
<circle cx="417.2" cy="366.4" r="0.88" fill="#cfd8e8" opacity="0.32"/>
<circle cx="677.8" cy="341.0" r="0.45" fill="#cfd8e8" opacity="0.51"/>
<circle cx="58.8" cy="64.6" r="0.70" fill="#cfd8e8" opacity="0.32"/>
<circle cx="499.5" cy="468.3" r="0.76" fill="#e8d8a8" opacity="0.41"/>
<circle cx="424.4" cy="363.0" r="0.70" fill="#e8d8a8" opacity="0.33"/>
<circle cx="91.5" cy="523.8" r="0.84" fill="#ffffff" opacity="0.47"/>
<circle cx="344.1" cy="710.5" r="0.61" fill="#cfd8e8" opacity="0.55"/>
<circle cx="332.8" cy="76.1" r="0.61" fill="#cfd8e8" opacity="0.50"/>
<circle cx="762.9" cy="549.5" r="0.64" fill="#ffffff" opacity="0.33"/>
<circle cx="74.6" cy="77.3" r="0.77" fill="#e8d8a8" opacity="0.54"/>
<circle cx="48.0" cy="765.3" r="0.68" fill="#cfd8e8" opacity="0.50"/>
<circle cx="282.9" cy="532.3" r="0.78" fill="#e8d8a8" opacity="0.56"/>
<circle cx="41.2" cy="230.1" r="0.56" fill="#e8d8a8" opacity="0.33"/>
<circle cx="170.2" cy="525.4" r="0.51" fill="#e8d8a8" opacity="0.33"/>
<circle cx="294.0" cy="610.1" r="0.69" fill="#e8d8a8" opacity="0.54"/>
<circle cx="779.6" cy="654.7" r="0.71" fill="#ffffff" opacity="0.49"/>
<circle cx="487.2" cy="526.3" r="0.75" fill="#cfd8e8" opacity="0.31"/>
<circle cx="562.2" cy="247.2" r="0.57" fill="#ffffff" opacity="0.30"/>
<circle cx="453.1" cy="320.6" r="0.47" fill="#ffffff" opacity="0.49"/>
<circle cx="73.4" cy="424.4" r="0.59" fill="#ffffff" opacity="0.44"/>
<circle cx="296.0" cy="577.3" r="0.79" fill="#ffffff" opacity="0.47"/>
<circle cx="706.7" cy="124.5" r="0.78" fill="#ffffff" opacity="0.31"/>
<circle cx="217.7" cy="529.6" r="0.64" fill="#cfd8e8" opacity="0.43"/>
<circle cx="172.5" cy="409.9" r="0.57" fill="#e8d8a8" opacity="0.33"/>
<circle cx="542.8" cy="389.3" r="1.40" fill="#d8e0ff" opacity="0.56"/>
<circle cx="787.6" cy="43.8" r="1.12" fill="#ffffff" opacity="0.83"/>
<circle cx="611.3" cy="231.6" r="1.07" fill="#d8e0ff" opacity="0.70"/>
<circle cx="140.6" cy="304.2" r="1.42" fill="#ffe9b8" opacity="0.70"/>
<circle cx="57.7" cy="689.4" r="1.03" fill="#ffffff" opacity="0.56"/>
<circle cx="689.7" cy="460.6" r="1.34" fill="#d8e0ff" opacity="0.76"/>
<circle cx="231.6" cy="324.0" r="1.58" fill="#d8e0ff" opacity="0.60"/>
<circle cx="665.6" cy="735.8" r="1.05" fill="#ffffff" opacity="0.80"/>
<circle cx="348.5" cy="320.4" r="1.05" fill="#ffe9b8" opacity="0.81"/>
<circle cx="177.3" cy="623.3" r="1.05" fill="#ffffff" opacity="0.74"/>
<circle cx="724.7" cy="279.5" r="1.44" fill="#ffffff" opacity="0.80"/>
<circle cx="189.0" cy="117.2" r="1.12" fill="#ffffff" opacity="0.73"/>
<circle cx="141.7" cy="618.3" r="1.30" fill="#d8e0ff" opacity="0.78"/>
<circle cx="544.9" cy="705.6" r="1.39" fill="#ffe9b8" opacity="0.85"/>
<circle cx="691.4" cy="501.8" r="1.09" fill="#d8e0ff" opacity="0.57"/>
<circle cx="505.1" cy="637.1" r="1.35" fill="#ffffff" opacity="0.66"/>
<circle cx="248.3" cy="361.5" r="1.03" fill="#ffffff" opacity="0.80"/>
<circle cx="515.7" cy="781.9" r="1.05" fill="#d8e0ff" opacity="0.73"/>
<circle cx="370.2" cy="443.5" r="1.48" fill="#d8e0ff" opacity="0.82"/>
<circle cx="727.2" cy="457.3" r="1.11" fill="#ffffff" opacity="0.73"/>
<circle cx="766.2" cy="360.4" r="1.49" fill="#ffffff" opacity="0.80"/>
<circle cx="403.6" cy="138.0" r="1.15" fill="#d8e0ff" opacity="0.68"/>
<circle cx="419.3" cy="487.8" r="1.22" fill="#d8e0ff" opacity="0.83"/>
<circle cx="327.0" cy="270.7" r="1.36" fill="#ffe9b8" opacity="0.79"/>
<circle cx="52.7" cy="75.6" r="1.41" fill="#ffffff" opacity="0.64"/>
<circle cx="266.7" cy="466.2" r="1.08" fill="#d8e0ff" opacity="0.65"/>
<circle cx="103.2" cy="567.1" r="1.05" fill="#ffe9b8" opacity="0.72"/>
<circle cx="650.5" cy="536.1" r="1.50" fill="#ffffff" opacity="0.77"/>
<circle cx="516.8" cy="338.7" r="1.22" fill="#ffffff" opacity="0.66"/>
<circle cx="760.9" cy="273.4" r="1.46" fill="#ffffff" opacity="0.61"/>
<circle cx="124.0" cy="236.6" r="1.47" fill="#ffffff" opacity="0.70"/>
<circle cx="529.5" cy="701.1" r="1.37" fill="#ffffff" opacity="0.73"/>
<circle cx="129.8" cy="665.1" r="1.46" fill="#ffffff" opacity="0.79"/>
<circle cx="576.9" cy="35.0" r="1.22" fill="#d8e0ff" opacity="0.77"/>
<circle cx="488.5" cy="601.9" r="1.47" fill="#ffffff" opacity="0.62"/>
<circle cx="247.6" cy="646.9" r="1.28" fill="#ffe9b8" opacity="0.80"/>
<circle cx="542.6" cy="456.3" r="1.26" fill="#d8e0ff" opacity="0.78"/>
<circle cx="402.3" cy="334.9" r="1.10" fill="#ffffff" opacity="0.61"/>
<circle cx="698.4" cy="41.7" r="1.29" fill="#ffffff" opacity="0.66"/>
<circle cx="569.1" cy="412.7" r="1.07" fill="#ffffff" opacity="0.58"/>
<circle cx="218.2" cy="724.2" r="1.09" fill="#ffffff" opacity="0.68"/>
<circle cx="653.4" cy="707.7" r="1.56" fill="#d8e0ff" opacity="0.67"/>
<circle cx="401.6" cy="188.6" r="1.60" fill="#ffffff" opacity="0.66"/>
<circle cx="254.9" cy="79.3" r="1.43" fill="#ffffff" opacity="0.65"/>
<circle cx="110.1" cy="229.5" r="1.50" fill="#ffffff" opacity="0.76"/>
<circle cx="607.1" cy="375.3" r="1.37" fill="#ffffff" opacity="0.82"/>
<circle cx="204.7" cy="668.0" r="1.33" fill="#d8e0ff" opacity="0.77"/>
<circle cx="88.9" cy="230.5" r="1.18" fill="#d8e0ff" opacity="0.56"/>
<circle cx="511.2" cy="498.2" r="1.04" fill="#d8e0ff" opacity="0.80"/>
<circle cx="477.4" cy="13.1" r="1.31" fill="#ffffff" opacity="0.62"/>
<circle cx="233.0" cy="1.3" r="1.21" fill="#ffffff" opacity="0.72"/>
<circle cx="531.5" cy="68.5" r="1.58" fill="#ffffff" opacity="0.57"/>
<circle cx="312.4" cy="376.1" r="1.38" fill="#ffe9b8" opacity="0.84"/>
<circle cx="597.9" cy="285.7" r="1.04" fill="#ffffff" opacity="0.62"/>
<circle cx="617.2" cy="588.1" r="1.20" fill="#ffe9b8" opacity="0.56"/>
<circle cx="650.8" cy="140.1" r="1.47" fill="#d8e0ff" opacity="0.69"/>
<circle cx="505.4" cy="649.2" r="1.04" fill="#d8e0ff" opacity="0.78"/>
<circle cx="29.6" cy="161.3" r="1.47" fill="#ffe9b8" opacity="0.82"/>
<circle cx="746.7" cy="412.3" r="1.59" fill="#ffe9b8" opacity="0.71"/>
<circle cx="29.3" cy="517.5" r="1.17" fill="#ffffff" opacity="0.81"/>
<circle cx="692.6" cy="265.5" r="1.07" fill="#d8e0ff" opacity="0.66"/>
<circle cx="594.6" cy="715.7" r="1.23" fill="#d8e0ff" opacity="0.84"/>
<circle cx="553.7" cy="293.9" r="1.48" fill="#ffffff" opacity="0.63"/>
<circle cx="581.7" cy="63.1" r="1.36" fill="#ffe9b8" opacity="0.80"/>
<circle cx="257.0" cy="64.1" r="1.40" fill="#d8e0ff" opacity="0.64"/>
<circle cx="133.3" cy="355.1" r="1.27" fill="#ffe9b8" opacity="0.77"/>
<circle cx="491.9" cy="348.0" r="1.38" fill="#ffffff" opacity="0.79"/>
<circle cx="60.0" cy="510.0" r="1.22" fill="#ffffff" opacity="0.79"/>
<circle cx="762.2" cy="114.2" r="1.36" fill="#ffffff" opacity="0.78"/>
<circle cx="101.0" cy="188.8" r="1.39" fill="#ffffff" opacity="0.66"/>
<circle cx="484.1" cy="543.2" r="1.57" fill="#ffffff" opacity="0.66"/>
<circle cx="459.1" cy="423.6" r="1.24" fill="#ffffff" opacity="0.74"/>
<circle cx="768.4" cy="20.7" r="1.11" fill="#ffffff" opacity="0.71"/>
<circle cx="209.4" cy="208.2" r="1.27" fill="#ffe9b8" opacity="0.85"/>
<circle cx="555.2" cy="798.9" r="1.12" fill="#ffffff" opacity="0.59"/>
<circle cx="361.6" cy="718.9" r="1.27" fill="#ffe9b8" opacity="0.58"/>
<circle cx="534.3" cy="567.6" r="1.33" fill="#ffe9b8" opacity="0.64"/>
<circle cx="681.1" cy="569.4" r="1.56" fill="#ffe9b8" opacity="0.74"/>
<circle cx="407.0" cy="97.1" r="1.12" fill="#d8e0ff" opacity="0.59"/>
<circle cx="21.0" cy="443.2" r="1.22" fill="#ffffff" opacity="0.79"/>
<circle cx="489.6" cy="69.0" r="7.4" fill="url(#halo)"/>
<circle cx="489.6" cy="69.0" r="1.85" fill="#fff2c8" opacity="0.95"/>
<circle cx="575.1" cy="420.6" r="8.9" fill="url(#halo)"/>
<circle cx="575.1" cy="420.6" r="2.22" fill="#fff2c8" opacity="0.95"/>
<circle cx="59.0" cy="777.9" r="8.5" fill="url(#halo)"/>
<circle cx="59.0" cy="777.9" r="2.11" fill="#fff2c8" opacity="0.95"/>
<circle cx="372.7" cy="413.9" r="6.8" fill="url(#halo)"/>
<circle cx="372.7" cy="413.9" r="1.70" fill="#fff2c8" opacity="0.95"/>
<circle cx="511.8" cy="145.6" r="9.5" fill="url(#halo)"/>
<circle cx="511.8" cy="145.6" r="2.37" fill="#fff2c8" opacity="0.95"/>
<circle cx="402.3" cy="694.6" r="9.1" fill="url(#halo)"/>
<circle cx="402.3" cy="694.6" r="2.27" fill="#fff2c8" opacity="0.95"/>
<circle cx="122.4" cy="131.7" r="7.4" fill="url(#halo)"/>
<circle cx="122.4" cy="131.7" r="1.86" fill="#fff2c8" opacity="0.95"/>
<circle cx="180.4" cy="758.0" r="8.1" fill="url(#halo)"/>
<circle cx="180.4" cy="758.0" r="2.02" fill="#fff2c8" opacity="0.95"/>
<circle cx="676.7" cy="200.5" r="8.4" fill="url(#halo)"/>
<circle cx="676.7" cy="200.5" r="2.11" fill="#fff2c8" opacity="0.95"/>
<circle cx="219.6" cy="500.0" r="8.4" fill="url(#halo)"/>
<circle cx="219.6" cy="500.0" r="2.09" fill="#ffffff" opacity="0.95"/>
<circle cx="402.1" cy="134.9" r="9.4" fill="url(#halo)"/>
<circle cx="402.1" cy="134.9" r="2.35" fill="#ffffff" opacity="0.95"/>
<circle cx="137.0" cy="499.6" r="9.3" fill="url(#halo)"/>
<circle cx="137.0" cy="499.6" r="2.32" fill="#fff2c8" opacity="0.95"/>
</svg>